<?xml version="1.0"?>
<svg xmlns="http://www.w3.org/2000/svg" xmlns:xlink="http://www.w3.org/1999/xlink" version="1.1" id="Capa_1" x="0px" y="0px" viewBox="0 0 453 453" style="enable-background:new 0 0 453 453;" xml:space="preserve" width="512px" height="512px"><g><g>
	<path d="M436.245,355.25c4.143,0,7.5-3.358,7.5-7.5s-3.357-7.5-7.5-7.5h-4.866c-0.182-0.487-0.377-0.965-0.592-1.435l3.442-3.442   c2.929-2.929,2.929-7.678-0.001-10.607c-2.928-2.929-7.677-2.928-10.606,0l-3.442,3.442c-0.469-0.215-0.948-0.41-1.434-0.592   v-4.867c0-4.142-3.357-7.5-7.5-7.5s-7.5,3.358-7.5,7.5v4.867c-0.487,0.182-0.966,0.377-1.435,0.592l-3.443-3.443   c-2.928-2.929-7.677-2.928-10.606,0c-2.929,2.929-2.929,7.678,0.001,10.607l3.442,3.442c-0.215,0.469-0.41,0.948-0.592,1.434   h-25.607l-2.188-13.408l14.926-269.927c0.13-2.337-0.84-4.6-2.62-6.119c-22.146-18.897-48.774-30.936-77.368-35.076V7.5   c0-4.142-3.357-7.5-7.5-7.5h-35c-4.143,0-7.5,3.358-7.5,7.5v9.163c-33.593,6.191-64.29,23.507-87.009,49.219l-4.11,4.65   c-1.472,1.665-2.13,3.897-1.796,6.094l30.71,202.088l-5.999,16.232c-6.683,18.083-15.21,35.564-25.344,51.958   c-15.442,24.963-47.553,33.193-73.103,18.736c-7.99-4.514-17.061-6.9-26.229-6.9c-10.326,0-20.353,2.967-28.99,8.577l-13.71,8.89   c-1.817,1.178-3.036,3.083-3.344,5.227c-0.308,2.143,0.325,4.314,1.737,5.956c35.194,40.934,86.364,64.41,140.387,64.41   c26.032,0,52.021-5.608,75.8-16.287v9.987c0,4.142,3.357,7.5,7.5,7.5h103c2.697,0,5.187-1.448,6.52-3.793l20.468-35.995   c6.347-11.16,8.703-24.284,6.637-36.955l-3.427-21.007h23.16c0.182,0.487,0.376,0.965,0.592,1.434l-3.443,3.442   c-2.93,2.929-2.93,7.677-0.001,10.607c1.465,1.465,3.384,2.197,5.304,2.197c1.919,0,3.839-0.732,5.303-2.197l3.443-3.443   c0.469,0.216,0.948,0.41,1.435,0.592v4.867c0,4.142,3.357,7.5,7.5,7.5s7.5-3.358,7.5-7.5v-4.867   c0.486-0.182,0.965-0.376,1.434-0.592l3.442,3.442c1.465,1.465,3.384,2.197,5.304,2.197c1.919,0,3.839-0.732,5.303-2.197   c2.93-2.929,2.93-7.677,0.001-10.607l-3.442-3.442c0.216-0.469,0.41-0.948,0.592-1.435H436.245z M303.233,372.667   c0.671,0.006,1.341,0.022,2.013,0.022c8.652,0,17.34-0.502,25.934-1.501l23.723-2.762l1.671,10.245c0.652,4,0.7,8.06,0.177,12.042   l-1.436,0.633c-16.613,7.33-34.093,11.577-52.082,12.693V372.667z M363.058,59.854l-14.376,260.002l-18.676,0.313   c-17.275,0.295-34.334-1.531-50.874-5.387V79.387h11.623c4.143,0,7.5-3.358,7.5-7.5V30.899   C322.025,34.722,344.226,44.615,363.058,59.854z M263.255,15h20v49.387h-20V15z M170.696,77.84l1.789-2.024   c19.881-22.501,46.532-37.871,75.77-43.87v39.94c0,4.142,3.357,7.5,7.5,7.5h8.377v231.299   c-18.519-5.818-36.238-14.253-52.702-25.176l-10.229-6.786c-0.012-0.117-0.013-0.233-0.031-0.35L170.696,77.84z M194.121,300.146   l2.409-6.52l6.606,4.383c36.732,24.37,79.276,37.192,123.276,37.192c1.279,0,2.563-0.011,3.846-0.032l19.167-0.321l3.06,18.76   l-23.039,2.682c-11.066,1.287-22.298,1.689-33.378,1.198c-30.574-1.369-61.021-9.646-88.05-23.938l-22.74-12.025   C188.496,314.507,191.45,307.373,194.121,300.146z M74.222,378.698c10.858,6.144,22.641,9.074,34.262,9.074   c23.255-0.001,45.847-11.744,58.981-32.978c3.983-6.444,7.73-13.048,11.228-19.785l22.314,11.8   c26.863,14.204,56.875,22.855,87.227,25.212v32.223c-10.59-0.375-21.131-1.842-31.4-4.391c-1.581-0.396-3.646-0.919-5.827-1.486   c-9.408-2.427-19.345-1.175-27.982,3.527c-28.818,15.711-62.376,20.696-97.046,14.413c-30.194-5.471-59.754-19.57-84.273-40.041   c4.337-1.66,8.959-2.526,13.671-2.526C61.964,373.74,68.482,375.455,74.222,378.698z M333.392,438h-91.137v-14.5   c0-2.621-1.368-5.051-3.607-6.411c-2.24-1.361-5.028-1.452-7.353-0.243l-1.02,0.53c-24.262,12.707-51.517,19.424-78.82,19.424   c-45.386,0-88.579-18.033-120.368-49.866c26.693,22.573,59.082,38.128,92.217,44.132c10.639,1.928,21.186,2.885,31.563,2.885   c26.766,0,52.379-6.371,75.332-18.885c5.286-2.877,11.348-3.648,17.045-2.179c2.216,0.577,4.33,1.113,5.962,1.521   c13.208,3.279,26.81,4.941,40.427,4.941c19.167,0,37.878-3.206,55.789-9.539L333.392,438z M411.245,354.259   c-3.589,0-6.509-2.92-6.509-6.509s2.92-6.509,6.509-6.509c3.59,0,6.51,2.92,6.51,6.509S414.835,354.259,411.245,354.259z" data-original="#000000" class="active-path" data-old_color="#FBFBFB" fill="#FFFFFF"/>
	<circle cx="275.375" cy="343.202" r="8.269" data-original="#000000" class="active-path" data-old_color="#FBFBFB" fill="#FFFFFF"/>
</g></g> </svg>
